<?xml version="1.0" encoding="utf-8"?>
<!DOCTYPE svg PUBLIC "-//W3C//DTD SVG 1.1//EN" "http://www.w3.org/Graphics/SVG/1.1/DTD/svg11.dtd">
<!-- Generated by graphviz version 2.43.0 (0)
 -->
<!-- Title: stones Pages: 1 -->
<svg height="742pt" viewBox="0.00 0.00 252.0 742.0" width="252pt" xmlns="http://www.w3.org/2000/svg" xmlns:xlink="http://www.w3.org/1999/xlink">
 <g class="graph" id="graph0" transform="scale(1 1) rotate(0) translate(4 688)">
  <title>
   stones
  </title>
  <polygon fill="white" points="-4,4 -4,-688 198,-688 198,4 -4,4" stroke="transparent"/>
  <!-- Leetcode&#45;几何 -->
  <g class="node" id="node1">
   <title>
    Leetcode-几何
   </title>
   <g id="a_node1">
    <a target="_parent" xlink:href="https://leetcode-cn.com/tag/geometry" xlink:title="Leetcode-几何(9)">
     <polygon fill="orangered" points="163,-684 31,-684 31,-648 163,-648 163,-684" stroke="lightgrey"/>
     <text fill="white" font-family="Microsoft YaHei" font-size="14.00" text-anchor="middle" x="97" y="-662.3">
      Leetcode-几何(9)
     </text>
    </a>
   </g>
  </g>
  <!-- 892 -->
  <g class="node" id="node2">
   <title>
    892
   </title>
   <g id="a_node2">
    <a target="_parent" xlink:href="https://leetcode-cn.com/problems/surface-area-of-3d-shapes" xlink:title="892. 三维形体的表面积">
     <polygon fill="none" points="171.5,-612 22.5,-612 22.5,-576 171.5,-576 171.5,-612" stroke="greenyellow"/>
     <text font-family="Microsoft YaHei" font-size="12.00" text-anchor="middle" x="97" y="-590.9">
      892. 三维形体的表面积
     </text>
    </a>
   </g>
   <g transform="translate(163.5, -618.0) scale(0.3)">
    <circle cx="24" cy="24" fill="#4caf50" r="21"/>
    <polygon fill="#ccff90" points="34.6,14.6 21,28.2 15.4,22.6 12.6,25.4 21,33.8 37.4,17.4"/>
   </g>
  </g>
  <!-- Leetcode&#45;几何&#45;&gt;892 -->
  <g class="edge" id="edge1">
   <title>
    Leetcode-几何-&gt;892
   </title>
   <path d="M97,-647.7C97,-639.98 97,-630.71 97,-622.11" fill="none" stroke="lightgrey"/>
   <polygon fill="lightgrey" points="100.5,-622.1 97,-612.1 93.5,-622.1 100.5,-622.1" stroke="lightgrey"/>
  </g>
  <!-- 1232 -->
  <g class="node" id="node3">
   <title>
    1232
   </title>
   <g id="a_node3">
    <a target="_parent" xlink:href="https://leetcode-cn.com/problems/check-if-it-is-a-straight-line" xlink:title="1232. 缀点成线">
     <polygon fill="none" points="149.5,-540 44.5,-540 44.5,-504 149.5,-504 149.5,-540" stroke="greenyellow"/>
     <text font-family="Microsoft YaHei" font-size="12.00" text-anchor="middle" x="97" y="-518.9">
      1232. 缀点成线
     </text>
    </a>
   </g>
   <g transform="translate(141.5, -546.0) scale(0.3)">
    <circle cx="24" cy="24" fill="#4caf50" r="21"/>
    <polygon fill="#ccff90" points="34.6,14.6 21,28.2 15.4,22.6 12.6,25.4 21,33.8 37.4,17.4"/>
   </g>
  </g>
  <!-- 892&#45;&gt;1232 -->
  <g class="edge" id="edge2">
   <title>
    892-&gt;1232
   </title>
   <path d="M97,-575.7C97,-567.98 97,-558.71 97,-550.11" fill="none" stroke="lightgrey"/>
   <polygon fill="lightgrey" points="100.5,-550.1 97,-540.1 93.5,-550.1 100.5,-550.1" stroke="lightgrey"/>
  </g>
  <!-- 1266 -->
  <g class="node" id="node4">
   <title>
    1266
   </title>
   <g id="a_node4">
    <a target="_parent" xlink:href="https://leetcode-cn.com/problems/minimum-time-visiting-all-points" xlink:title="1266. 访问所有点的最小时间">
     <polygon fill="none" points="188,-468 6,-468 6,-432 188,-432 188,-468" stroke="greenyellow"/>
     <text font-family="Microsoft YaHei" font-size="12.00" text-anchor="middle" x="97" y="-446.9">
      1266. 访问所有点的最小时间
     </text>
    </a>
   </g>
   <g transform="translate(180.0, -474.0) scale(0.3)">
    <circle cx="24" cy="24" fill="#4caf50" r="21"/>
    <polygon fill="#ccff90" points="34.6,14.6 21,28.2 15.4,22.6 12.6,25.4 21,33.8 37.4,17.4"/>
   </g>
  </g>
  <!-- 1232&#45;&gt;1266 -->
  <g class="edge" id="edge3">
   <title>
    1232-&gt;1266
   </title>
   <path d="M97,-503.7C97,-495.98 97,-486.71 97,-478.11" fill="none" stroke="lightgrey"/>
   <polygon fill="lightgrey" points="100.5,-478.1 97,-468.1 93.5,-478.1 100.5,-478.1" stroke="lightgrey"/>
  </g>
  <!-- 963 -->
  <g class="node" id="node5">
   <title>
    963
   </title>
   <g id="a_node5">
    <a target="_parent" xlink:href="https://leetcode-cn.com/problems/minimum-area-rectangle-ii" xlink:title="963. 最小面积矩形 II">
     <polygon fill="none" points="164,-396 30,-396 30,-360 164,-360 164,-396" stroke="orange"/>
     <text font-family="Microsoft YaHei" font-size="12.00" text-anchor="middle" x="97" y="-374.9">
      963. 最小面积矩形 II
     </text>
    </a>
   </g>
   <g transform="translate(156.0, -402.0) scale(0.3)">
    <circle cx="24" cy="24" fill="#4caf50" r="21"/>
    <polygon fill="#ccff90" points="34.6,14.6 21,28.2 15.4,22.6 12.6,25.4 21,33.8 37.4,17.4"/>
   </g>
  </g>
  <!-- 1266&#45;&gt;963 -->
  <g class="edge" id="edge4">
   <title>
    1266-&gt;963
   </title>
   <path d="M97,-431.7C97,-423.98 97,-414.71 97,-406.11" fill="none" stroke="lightgrey"/>
   <polygon fill="lightgrey" points="100.5,-406.1 97,-396.1 93.5,-406.1 100.5,-406.1" stroke="lightgrey"/>
  </g>
  <!-- 1401 -->
  <g class="node" id="node6">
   <title>
    1401
   </title>
   <g id="a_node6">
    <a target="_parent" xlink:href="https://leetcode-cn.com/problems/circle-and-rectangle-overlapping" xlink:title="1401. 圆和矩形是否有重叠">
     <polygon fill="none" points="181.5,-324 12.5,-324 12.5,-288 181.5,-288 181.5,-324" stroke="orange"/>
     <text font-family="Microsoft YaHei" font-size="12.00" text-anchor="middle" x="97" y="-302.9">
      1401. 圆和矩形是否有重叠
     </text>
    </a>
   </g>
   <g transform="translate(173.5, -330.0) scale(0.3)">
    <circle cx="24" cy="24" fill="#4caf50" r="21"/>
    <polygon fill="#ccff90" points="34.6,14.6 21,28.2 15.4,22.6 12.6,25.4 21,33.8 37.4,17.4"/>
   </g>
  </g>
  <!-- 963&#45;&gt;1401 -->
  <g class="edge" id="edge5">
   <title>
    963-&gt;1401
   </title>
   <path d="M97,-359.7C97,-351.98 97,-342.71 97,-334.11" fill="none" stroke="lightgrey"/>
   <polygon fill="lightgrey" points="100.5,-334.1 97,-324.1 93.5,-334.1 100.5,-334.1" stroke="lightgrey"/>
  </g>
  <!-- 587 -->
  <g class="node" id="node7">
   <title>
    587
   </title>
   <g id="a_node7">
    <a target="_parent" xlink:href="https://leetcode-cn.com/problems/erect-the-fence" xlink:title="587. 安装栅栏">
     <polygon fill="none" points="146,-252 48,-252 48,-216 146,-216 146,-252" stroke="red"/>
     <text font-family="Microsoft YaHei" font-size="12.00" text-anchor="middle" x="97" y="-230.9">
      587. 安装栅栏
     </text>
    </a>
   </g>
   <g transform="translate(138.0, -258.0) scale(0.3)">
    <circle cx="24" cy="24" fill="#4caf50" r="21"/>
    <polygon fill="#ccff90" points="34.6,14.6 21,28.2 15.4,22.6 12.6,25.4 21,33.8 37.4,17.4"/>
   </g>
  </g>
  <!-- 1401&#45;&gt;587 -->
  <g class="edge" id="edge6">
   <title>
    1401-&gt;587
   </title>
   <path d="M97,-287.7C97,-279.98 97,-270.71 97,-262.11" fill="none" stroke="lightgrey"/>
   <polygon fill="lightgrey" points="100.5,-262.1 97,-252.1 93.5,-262.1 100.5,-262.1" stroke="lightgrey"/>
  </g>
  <!-- 1453 -->
  <g class="node" id="node8">
   <title>
    1453
   </title>
   <g id="a_node8">
    <a target="_parent" xlink:href="https://leetcode-cn.com/problems/maximum-number-of-darts-inside-of-a-circular-dartboard" xlink:title="1453. 圆形靶内的最大飞镖数量">
     <polygon fill="none" points="194,-180 0,-180 0,-144 194,-144 194,-180" stroke="red"/>
     <text font-family="Microsoft YaHei" font-size="12.00" text-anchor="middle" x="97" y="-158.9">
      1453. 圆形靶内的最大飞镖数量
     </text>
    </a>
   </g>
   <g transform="translate(186.0, -186.0) scale(0.3)">
    <circle cx="24" cy="24" fill="#4caf50" r="21"/>
    <polygon fill="#ccff90" points="34.6,14.6 21,28.2 15.4,22.6 12.6,25.4 21,33.8 37.4,17.4"/>
   </g>
  </g>
  <!-- 587&#45;&gt;1453 -->
  <g class="edge" id="edge7">
   <title>
    587-&gt;1453
   </title>
   <path d="M97,-215.7C97,-207.98 97,-198.71 97,-190.11" fill="none" stroke="lightgrey"/>
   <polygon fill="lightgrey" points="100.5,-190.1 97,-180.1 93.5,-190.1 100.5,-190.1" stroke="lightgrey"/>
  </g>
  <!-- 1515 -->
  <g class="node" id="node9">
   <title>
    1515
   </title>
   <g id="a_node9">
    <a target="_parent" xlink:href="https://leetcode-cn.com/problems/best-position-for-a-service-centre" xlink:title="1515. 服务中心的最佳位置">
     <polygon fill="none" points="181.5,-108 12.5,-108 12.5,-72 181.5,-72 181.5,-108" stroke="red"/>
     <text font-family="Microsoft YaHei" font-size="12.00" text-anchor="middle" x="97" y="-86.9">
      1515. 服务中心的最佳位置
     </text>
    </a>
   </g>
   <g transform="translate(173.5, -114.0) scale(0.3)">
    <circle cx="24" cy="24" fill="#4caf50" r="21"/>
    <polygon fill="#ccff90" points="34.6,14.6 21,28.2 15.4,22.6 12.6,25.4 21,33.8 37.4,17.4"/>
   </g>
  </g>
  <!-- 1453&#45;&gt;1515 -->
  <g class="edge" id="edge8">
   <title>
    1453-&gt;1515
   </title>
   <path d="M97,-143.7C97,-135.98 97,-126.71 97,-118.11" fill="none" stroke="lightgrey"/>
   <polygon fill="lightgrey" points="100.5,-118.1 97,-108.1 93.5,-118.1 100.5,-118.1" stroke="lightgrey"/>
  </g>
  <!-- 1610 -->
  <g class="node" id="node10">
   <title>
    1610
   </title>
   <g id="a_node10">
    <a target="_parent" xlink:href="https://leetcode-cn.com/problems/maximum-number-of-visible-points" xlink:title="1610. 可见点的最大数目">
     <polygon fill="none" points="175,-36 19,-36 19,0 175,0 175,-36" stroke="red"/>
     <text font-family="Microsoft YaHei" font-size="12.00" text-anchor="middle" x="97" y="-14.9">
      1610. 可见点的最大数目
     </text>
    </a>
   </g>
   <g transform="translate(167.0, -42.0) scale(0.3)">
    <circle cx="24" cy="24" fill="#4caf50" r="21"/>
    <polygon fill="#ccff90" points="34.6,14.6 21,28.2 15.4,22.6 12.6,25.4 21,33.8 37.4,17.4"/>
   </g>
  </g>
  <!-- 1515&#45;&gt;1610 -->
  <g class="edge" id="edge9">
   <title>
    1515-&gt;1610
   </title>
   <path d="M97,-71.7C97,-63.98 97,-54.71 97,-46.11" fill="none" stroke="lightgrey"/>
   <polygon fill="lightgrey" points="100.5,-46.1 97,-36.1 93.5,-46.1 100.5,-46.1" stroke="lightgrey"/>
  </g>
  <g class="key">
   <defs>
    <filter height="1.2" id="solid" width="1.2" x="-0.1" y="-0.1">
     <feFlood flood-color="#ccff90" result="bg"/>
     <feMerge>
      <feMergeNode in="bg"/>
      <feMergeNode in="SourceGraphic"/>
     </feMerge>
    </filter>
   </defs>
   <text filter="url(#solid)" font-family="Microsoft YaHei" font-size="10.00" text-anchor="middle" x="97.0" y="-571.0">
    表面积
   </text>
  </g>
  <g class="key">
   <defs>
    <filter height="1.2" id="solid" width="1.2" x="-0.1" y="-0.1">
     <feFlood flood-color="#ccff90" result="bg"/>
     <feMerge>
      <feMergeNode in="bg"/>
      <feMergeNode in="SourceGraphic"/>
     </feMerge>
    </filter>
   </defs>
   <text filter="url(#solid)" font-family="Microsoft YaHei" font-size="10.00" text-anchor="middle" x="97.0" y="-499.0">
    点与线
   </text>
  </g>
  <g class="key">
   <defs>
    <filter height="1.2" id="solid" width="1.2" x="-0.1" y="-0.1">
     <feFlood flood-color="#ccff90" result="bg"/>
     <feMerge>
      <feMergeNode in="bg"/>
      <feMergeNode in="SourceGraphic"/>
     </feMerge>
    </filter>
   </defs>
   <text filter="url(#solid)" font-family="Microsoft YaHei" font-size="10.00" text-anchor="middle" x="97.0" y="-427.0">
    斜线与直线
   </text>
  </g>
  <g class="key">
   <defs>
    <filter height="1.2" id="solid" width="1.2" x="-0.1" y="-0.1">
     <feFlood flood-color="#ccff90" result="bg"/>
     <feMerge>
      <feMergeNode in="bg"/>
      <feMergeNode in="SourceGraphic"/>
     </feMerge>
    </filter>
   </defs>
   <text filter="url(#solid)" font-family="Microsoft YaHei" font-size="10.00" text-anchor="middle" x="97.0" y="-355.0">
    点与矩形
   </text>
  </g>
  <g class="key">
   <defs>
    <filter height="1.2" id="solid" width="1.2" x="-0.1" y="-0.1">
     <feFlood flood-color="#ccff90" result="bg"/>
     <feMerge>
      <feMergeNode in="bg"/>
      <feMergeNode in="SourceGraphic"/>
     </feMerge>
    </filter>
   </defs>
   <text filter="url(#solid)" font-family="Microsoft YaHei" font-size="10.00" text-anchor="middle" x="97.0" y="-283.0">
    圆与矩形
   </text>
  </g>
  <g class="key">
   <defs>
    <filter height="1.2" id="solid" width="1.2" x="-0.1" y="-0.1">
     <feFlood flood-color="#ccff90" result="bg"/>
     <feMerge>
      <feMergeNode in="bg"/>
      <feMergeNode in="SourceGraphic"/>
     </feMerge>
    </filter>
   </defs>
   <text filter="url(#solid)" font-family="Microsoft YaHei" font-size="10.00" text-anchor="middle" x="97.0" y="-211.0">
    多边形与凸包
   </text>
  </g>
  <g class="key">
   <defs>
    <filter height="1.2" id="solid" width="1.2" x="-0.1" y="-0.1">
     <feFlood flood-color="#ccff90" result="bg"/>
     <feMerge>
      <feMergeNode in="bg"/>
      <feMergeNode in="SourceGraphic"/>
     </feMerge>
    </filter>
   </defs>
   <text filter="url(#solid)" font-family="Microsoft YaHei" font-size="10.00" text-anchor="middle" x="97.0" y="-139.0">
    圆与点
   </text>
  </g>
  <g class="key">
   <defs>
    <filter height="1.2" id="solid" width="1.2" x="-0.1" y="-0.1">
     <feFlood flood-color="#ccff90" result="bg"/>
     <feMerge>
      <feMergeNode in="bg"/>
      <feMergeNode in="SourceGraphic"/>
     </feMerge>
    </filter>
   </defs>
   <text filter="url(#solid)" font-family="Microsoft YaHei" font-size="10.00" text-anchor="middle" x="97.0" y="-67.0">
    凸函数最值
   </text>
  </g>
  <g class="key">
   <defs>
    <filter height="1.2" id="solid" width="1.2" x="-0.1" y="-0.1">
     <feFlood flood-color="#ccff90" result="bg"/>
     <feMerge>
      <feMergeNode in="bg"/>
      <feMergeNode in="SourceGraphic"/>
     </feMerge>
    </filter>
   </defs>
   <text filter="url(#solid)" font-family="Microsoft YaHei" font-size="10.00" text-anchor="middle" x="97.0" y="5.0">
    扇形
   </text>
  </g>
 </g>
</svg>